# xmcd CD database file
#
# Track frame offsets:
#	150
#	16919
#	31100
#	42246
#	52647
#	71271
#	83302
#	95146
#	111624
#	125492
#	137504
#	152186
#	168587
#	183757
#	196810
#	213510
#	228698
#	245703
#	260654
#	277283
#
# Disc length: 3974 seconds
#
# Revision: 0
# Processed by: cddbd v1.5.1PL0 Copyright (c) Steve Scherf et al.
# Submitted via: CDex 1.51
#
DISCID=190f8414
DTITLE=Count Basie - V-Disc
DYEAR=1900
DGENRE=Jazz
TTITLE0=Sugar Hill Shuffle
TTITLE1=Just An Old Manuscript
TTITLE2=I'm Fer It Too
TTITLE3=G. I. Stomp
TTITLE4=Dance Of The Gremlins
TTITLE5=Yeah Man
TTITLE6=Rhythm Man
TTITLE7=Jumpin' At The Woodside
TTITLE8=It's Sand, Man!
TTITLE9=I Never Knew
TTITLE10=Please Don't Talk About Me When I'm Gone
TTITLE11=Tush
TTITLE12=The King
TTITLE13=Robbins Nest
TTITLE14=Circus In Rhythm
TTITLE15=Call Me Darling
TTITLE16=Kansas City Strike
TTITLE17=Playhouse Nr.2 Stomp
TTITLE18=Beaver Junction
TTITLE19=Harvard Blues
EXTD=
EXTT0=
EXTT1=
EXTT2=
EXTT3=
EXTT4=
EXTT5=
EXTT6=
EXTT7=
EXTT8=
EXTT9=
EXTT10=
EXTT11=
EXTT12=
EXTT13=
EXTT14=
EXTT15=
EXTT16=
EXTT17=
EXTT18=
EXTT19=
PLAYORDER=
